<svg xmlns="http://www.w3.org/2000/svg" width="206.708" height="110.243" viewBox="0 0 206.708 110.243">
  <g id="Group_12" data-name="Group 12" transform="translate(-862.5 -345.878)">
    <g id="Sign_Up_SVG" data-name="Sign Up SVG" transform="translate(862.5 345.878)">
      <g id="Symbols" transform="translate(89.384 74.081)">
        <g id="Objects_Seat_Cube-2" data-name="Objects/Seat/Cube-2" transform="translate(0 0)">
          <path id="Seat" d="M47.666,0H81.2a4.666,4.666,0,0,1,4.666,4.666V31.5A4.666,4.666,0,0,1,81.2,36.162H47.666A4.666,4.666,0,0,1,43,31.5V4.666A4.666,4.666,0,0,1,47.666,0Zm4.666,8.166a1.167,1.167,0,0,0-1.167,1.167v17.5A1.167,1.167,0,0,0,52.332,28H76.537A1.167,1.167,0,0,0,77.7,26.83V9.332a1.167,1.167,0,0,0-1.167-1.167Z" transform="translate(-43 0)" fill="#c5cfd6" fill-rule="evenodd"/>
        </g>
      </g>
      <g id="humaaans_sitting-8" data-name="humaaans/sitting-8" transform="translate(115 -32)">
        <g id="A-Human_Sitting" data-name="A-Human/Sitting" transform="translate(91.708 142.243) rotate(180)">
          <g id="Head_Front_Short-2" data-name="Head/Front/Short-2" transform="translate(22.224 71.737)">
            <g id="Head" transform="translate(1.125 0)">
              <path id="Path_5" data-name="Path 5" d="M2.324,10.834A7.621,7.621,0,0,0,.3,16.309c.422,6.02,8.8,4.7,10.433,1.657s1.437-10.746-.67-11.289c-.84-.217-2.63.314-4.452,1.412L6.752,0H0Z" fill="#915b3c" fill-rule="evenodd"/>
            </g>
            <path id="Hair" d="M2.931,0C2.083,3.77-.331,6.34.038,8.025A2.556,2.556,0,0,0,2,10.121q.826,3.341,5.327,2.842c4.5-.5,7.248-2.368,6.062-6.481A9.5,9.5,0,0,1,9.164,6.2Q8.3,5.879,7.925,4.206H7.1Q5.9,6.191,4.74,5.665T4.211,3.108L3.806,0Z" transform="translate(0 9.478)" fill="#191847" fill-rule="evenodd"/>
          </g>
          <g id="Bottom_Sitting_Baggy-Pants" data-name="Bottom/Sitting/Baggy-Pants" transform="translate(0 0)">
            <g id="Objects_Seat_Cube-2-2" data-name="Objects/Seat/Cube-2" transform="translate(0 1.688)">
              <path id="Seat-2" data-name="Seat" d="M4.5,34.884H36.853a4.5,4.5,0,0,0,4.5-4.5V4.5a4.5,4.5,0,0,0-4.5-4.5H4.5A4.5,4.5,0,0,0,0,4.5V30.383A4.5,4.5,0,0,0,4.5,34.884ZM9,27.007a1.125,1.125,0,0,1-1.125-1.125V9A1.125,1.125,0,0,1,9,7.877h23.35A1.125,1.125,0,0,1,33.477,9V25.882a1.125,1.125,0,0,1-1.125,1.125Z" fill="#c5cfd6" fill-rule="evenodd"/>
            </g>
            <path id="LegLower" d="M18.612,0A146.224,146.224,0,0,0,7.353,15.064C4,20.662,1.253,25.643.386,27.546c-2.066,4.537,4.757,6.662,6.3,4.546q3.506-4.8,14.974-30.24Z" transform="translate(50.638 3.095)" fill="#b28b67" fill-rule="evenodd"/>
            <path id="LegLower-2" data-name="LegLower" d="M10.622,0,.3,25.984c-2.208,4.737,8.454,7.85,10.076,5.646,3.684-5,12.439-24.747,13.536-26.238Z" transform="translate(47.262 5.064)" fill="#2f3676" fill-rule="evenodd"/>
            <g id="Lower-Leg" transform="matrix(0.777, -0.629, 0.629, 0.777, 29.053, 9.428)">
              <path id="LegLower-3" data-name="LegLower" d="M.508,1.5C.224,5.045-.3,17.317.225,23c.151,1.632.311,3.21.471,4.691.477,4.4,8.636,4.261,7.988.081-1.614-10.411-4.454-25-4.657-26.262C3.742-.261.686-.727.508,1.5Z" transform="translate(0 0)" fill="#915b3c" fill-rule="evenodd"/>
            </g>
            <g id="Accessories_Shoe_Flat-Sneaker" data-name="Accessories/Shoe/Flat-Sneaker" transform="matrix(0.866, -0.5, 0.5, 0.866, 28.4, 8.279)">
              <path id="shoe" d="M.472,4.107A6.041,6.041,0,0,1,0,2.221,14.116,14.116,0,0,1,.254,0H16.121q.618,2.045-.714,2.208T13.193,2.5L5.818,5.79a.281.281,0,0,1-.371-.142l0-.007L4.969,4.49a5.059,5.059,0,0,0-2-.576,4.54,4.54,0,0,0-1.731.506h0a.563.563,0,0,1-.746-.277Q.479,4.126.472,4.107Z" transform="translate(0 0)" fill="#e4e4e4" fill-rule="evenodd"/>
            </g>
            <g id="Accessories_Shoe_Flat-Sneaker-2" data-name="Accessories/Shoe/Flat-Sneaker" transform="translate(66.392)">
              <path id="shoe-2" data-name="shoe" d="M.472,4.107A6.041,6.041,0,0,1,0,2.221,14.116,14.116,0,0,1,.254,0H16.121q.618,2.045-.714,2.208T13.193,2.5L5.818,5.79a.281.281,0,0,1-.371-.142l0-.007L4.969,4.49a5.059,5.059,0,0,0-2-.576,4.54,4.54,0,0,0-1.731.506h0a.563.563,0,0,1-.746-.277Q.479,4.126.472,4.107Z" transform="translate(0 0)" fill="#e4e4e4" fill-rule="evenodd"/>
            </g>
            <path id="Leg-and-Butt" d="M26.922,22.073q-12.869,2.1-17.24,2.867C1.377,26.4-1.045,30.874.387,40.626h15.3q3.038-.877,25.385-10.85c2.68-1.331,2.181-5.254,1.691-6.546Q42.736,23.15,29.209,0L16.691,7.975,26.946,21.134Q27.352,21.952,26.922,22.073Z" transform="translate(16.925 7.676)" fill="#5c63ab" fill-rule="evenodd"/>
          </g>
          <g id="Body_Hoodie" data-name="Body/Hoodie" transform="translate(0.89 26.963)">
            <path id="Skin" d="M44.06,25.022l8.974-6.59a24.157,24.157,0,0,0,6.1-2.451c.386-.351.852-1.063-.748-.94s-3.288.181-3.509-.365.747-1.2.3-1.934q-.446-.736-4.216,3.692l-8.886,3.685ZM9.606,24.795l5.879-.023Q10.04,7.194,9.606,6.119c-.651-1.613.727-4.07,1.316-5.39C9-.13,9.207,3.049,6.787,1.924,4.578.9,2.9-.966.345.608.031.8-.313,1.531.518,2.1,2.588,3.52,5.571,6,5.974,6.822Q6.8,8.494,9.606,24.795Z" transform="translate(0 0)" fill="#915b3c" fill-rule="evenodd"/>
            <path id="Coat-Back" d="M0,31.412l2.387.628c9.671-6.981,14.669-21.579,26.382-28.52L26.4,0C7.077.695.746,18.481,0,31.412Z" transform="translate(23.575 18.17) rotate(-5)" fill="#e87613" fill-rule="evenodd"/>
            <path id="Shirt" d="M0,0H21.524c.984,0,.8,1.42.656,2.137-1.641,8.271-8.046,17.187-8.046,28.96l-6.208.974C2.79,23.811,1.014,13.643,0,0Z" transform="translate(15.708 18.893)" fill="#dde3e9" fill-rule="evenodd"/>
            <path id="Coat-Front" d="M10.057,35.768a3.551,3.551,0,0,0-2.142,1.814c-2.269,4.095-1.45,6.349.975,7.09s4.588-.785,8.452-.785a3.892,3.892,0,0,0,.578-.04l1.944-.111q8.365-28.349,4.614-37.828H7.535A57.78,57.78,0,0,0,4.654,0H.038Q-.614,21.071,10.057,35.768Z" transform="translate(5.824 7.077)" fill="#ff9b21" fill-rule="evenodd"/>
            <path id="Shade" d="M3.689,9.706q.8-6.687,2.6-9.706H0Q1.756,4.1,3.689,9.706Z" transform="translate(13.36 12.985)" fill="rgba(0,0,0,0.1)" fill-rule="evenodd"/>
          </g>
        </g>
      </g>
      <g id="humaaans_sitting-1" data-name="humaaans/sitting-1">
        <g id="A-Human_Sitting-2" data-name="A-Human/Sitting" transform="translate(0 0)">
          <g id="Head_Front_Airy" data-name="Head/Front/Airy" transform="translate(0 0)">
            <g id="Head-2" data-name="Head" transform="translate(36.813 11.373)">
              <path id="Path_6" data-name="Path 6" d="M2.473,10.323A8.108,8.108,0,0,1,.316,4.5c.449-6.405,9.365-5,11.1-1.763s1.528,11.433-.713,12.011c-.894.23-2.8-.334-4.736-1.5l1.217,8.606H0Z" fill="#b28b67" fill-rule="evenodd"/>
            </g>
            <path id="hair-2" data-name="hair" d="M44.135,10.381c-.947-.155-3.5-.262-3.966-.262-.3,0-.626.069-.8-.207-.146-.226-.092-.608-.136-.87-.05-.3-.122-.605-.195-.9a9.2,9.2,0,0,0-.955-2.427,7.46,7.46,0,0,0-3.536-3.2,11.354,11.354,0,0,0-5.368-.738,23.568,23.568,0,0,0-5.49,1.391,11.505,11.505,0,0,1-5.362.516,12.864,12.864,0,0,1-4.748-2.21A8.844,8.844,0,0,0,8.331.021,10.1,10.1,0,0,0,3.547,1.835a7.805,7.805,0,0,0-3.085,3.5A4.792,4.792,0,0,0,.9,10.213c1.609,2.1,4.595,2.638,7.079,2.584a13.525,13.525,0,0,0,4.205-.771,40.657,40.657,0,0,0,5.066-2.59,13.182,13.182,0,0,1,2.476-.991,2.762,2.762,0,0,1,2.414.161A11.4,11.4,0,0,0,24.57,10a7.844,7.844,0,0,0,2.743.493,27.044,27.044,0,0,0,5.381-.961,11.046,11.046,0,0,1,4.453-.321c.613.124,1.509.381,1.73,1.018-3.728.676-5.192,5.286-4.141,8.67.567,1.827,3.976,3.962,5.3,3,.84-.608.33-1.407,0-1.934-.632-1.01-.848-2.307.321-3.009,1.009-.606,2.069.833,2.089.832a12.961,12.961,0,0,0,4.323-3.353c1.628.1,1.875-.977,1.486-1.855S45.443,10.6,44.135,10.381Z" transform="translate(0 0)" fill="#191847" fill-rule="evenodd"/>
          </g>
          <g id="Bottom_Sitting_Sweat-Pants" data-name="Bottom/Sitting/Sweat-Pants" transform="translate(11.072 58.063)">
            <g id="Objects_Seat_Ball" data-name="Objects/Seat/Ball" transform="translate(0 8.083)">
              <ellipse id="Ballsy-Ball" cx="22.897" cy="22.049" rx="22.897" ry="22.049" transform="translate(0)" fill="#c5cfd6"/>
            </g>
            <path id="Skin-2" data-name="Skin" d="M45.6,39.056a167.523,167.523,0,0,1-7.721-19.777C35.977,12.6,34.526,6.727,34.16,4.533,33.286-.7,40.883-1,41.887,1.6c1.52,3.935,4.173,16.865,7.361,36.4ZM1.122,12.42C4.641,11.029,16.962,6.677,22.9,5.446c1.708-.354,3.363-.683,4.919-.98,4.625-.883,7.022,7.461,2.567,8.1C19.3,14.165,3.569,15.814,2.223,16,.337,16.258-1.089,13.294,1.122,12.42Z" transform="translate(20.695 9.627)" fill="#b28b67" fill-rule="evenodd"/>
            <path id="Leg-Back" d="M19.031,11.8,0,2.109V0H2.263Q29.881,7.037,30.489,9.02c0,.014.008.028.012.043l.027.037c3.649,5.018,5.834,29.517,6.551,31.352l-6.992,1.043c-2.675-9.918-11.232-16.827-11-28.706A3.9,3.9,0,0,1,19.031,11.8Z" transform="translate(32.326)" fill="#1f28cf" fill-rule="evenodd"/>
            <path id="Leg-Front" d="M15.049,17.551c-1.741-.349-3.345-.66-4.717-.9C1.469,15.1-1.115,10.351.413,0h16.33c2.668.766,16.531,6.58,23.723,9.672,4.761,2.047,3.26,9.424.564,11.344a.263.263,0,0,1-.15.234c-14.5,6.011-25.974,2.857-29.807,3.865L9.3,19.522Z" transform="translate(18.858 0)" fill="#2b44ff" fill-rule="evenodd"/>
            <g id="Accessories_Shoe_Flat-Sneaker-3" data-name="Accessories/Shoe/Flat-Sneaker" transform="matrix(0.438, 0.899, -0.899, 0.438, 24.433, 19.91)">
              <path id="shoe-3" data-name="shoe" d="M.5,1.817A6.426,6.426,0,0,0,0,3.823,15.017,15.017,0,0,0,.27,6.186H17.15q.658-2.175-.76-2.349t-2.355-.313L6.189.026a.3.3,0,0,0-.4.152l0,.008-.5,1.223a5.382,5.382,0,0,1-2.133.612,4.83,4.83,0,0,1-1.841-.538h0a.6.6,0,0,0-.794.295Q.51,1.8.5,1.817Z" transform="translate(0)" fill="#e4e4e4" fill-rule="evenodd"/>
            </g>
            <g id="Accessories_Shoe_Flat-Sneaker-4" data-name="Accessories/Shoe/Flat-Sneaker" transform="translate(64.051 45.293)">
              <path id="shoe-4" data-name="shoe" d="M.5,1.817A6.426,6.426,0,0,0,0,3.823,15.018,15.018,0,0,0,.27,6.186H17.15q.658-2.175-.76-2.349t-2.355-.313L6.189.026a.3.3,0,0,0-.4.152l0,.008-.5,1.223a5.382,5.382,0,0,1-2.133.612,4.83,4.83,0,0,1-1.841-.538h0a.6.6,0,0,0-.794.295Q.51,1.8.5,1.817Z" transform="translate(0 0)" fill="#e4e4e4" fill-rule="evenodd"/>
            </g>
          </g>
          <g id="Body_Jacket-2" data-name="Body/Jacket-2" transform="translate(3.292 26.637)">
            <path id="Skin-3" data-name="Skin" d="M58.662,9.163,69.506,4.4A25.689,25.689,0,0,1,75.01.084c.529-.168,1.433-.219.468,1.189S73.563,4.207,73.948,4.7s1.5-.051,1.942.752q.441.8-5.644,1.92L62.124,13.6ZM14.818,10.475l6.133,1.217Q11.7,28.934,11.027,29.968c-1.007,1.552-.067,4.4.28,5.893-2.177.507-1.319-2.77-4.074-2.086C4.718,34.4,2.586,36,.241,33.841c-.288-.266-.5-1.1.484-1.523C3.173,31.257,6.792,29.27,7.378,28.5Q8.578,26.92,14.818,10.475Z" transform="translate(0 14.067)" fill="#b28b67" fill-rule="evenodd"/>
            <path id="Coat-Back-2" data-name="Coat-Back" d="M0,.668,2.539,0c6.092,4.956,9.529,17.843,13.423,19.247,3.681,1.328,8.559-.7,14.333-3.357l2.183,3.92c-4.9,6.334-16.011,12.3-20.936,9.878C3.668,25.823.529,9.833,0,.668Z" transform="translate(37.678 0.931) rotate(5)" fill="#db2721" fill-rule="evenodd"/>
            <path id="Shirt-2" data-name="Shirt" d="M0,34.119H22.9c1.047,0,.849-1.511.7-2.273-1.745-8.8-8.56-18.285-8.56-30.81L8.432,0C2.968,8.787,1.079,19.605,0,34.119Z" transform="translate(26.338 0)" fill="#dde3e9" fill-rule="evenodd"/>
            <path id="Coat-Front-2" data-name="Coat-Front" d="M16.572,25.21Q9.569,37.841,4.8,43.4L0,42.457Q4.638,13.695,26.861,0h2.615q8.895,30.32,4.9,40.4H13.767A75.247,75.247,0,0,1,16.572,25.21Z" transform="translate(7.482 0)" fill="#ff4133" fill-rule="evenodd"/>
          </g>
        </g>
      </g>
      <g id="Symbols-2" data-name="Symbols" transform="translate(-224.532 -177.52)">
        <g id="Scene_Plants" data-name="Scene/Plants" transform="translate(307.998 191.998)">
          <path id="Leaf-Bottom" d="M24.188,32.8c.663.286,1.5-.13,1.1-.958-.432-.886-1.855-.823-2.658-.763.081,0,.383.818.478.939A2.727,2.727,0,0,0,24.188,32.8ZM15.894,16.938C15.724,16.807,15.88,16.925,15.894,16.938ZM24.6,28.67a.767.767,0,0,0,.027-1.149,1.864,1.864,0,0,0-1.559-.275c-.226.03-1.431.19-1.134.373a.978.978,0,0,1-.12-.05q-.048-.143-.1-.286l.02-.014-.021.012a11.122,11.122,0,0,0-1.391-2.669,2.623,2.623,0,0,0,.635.134c.636.047,1.938-.514,1.188-1.317-.719-.77-1.728.149-2.491.309a35.98,35.98,0,0,0-2.586-2.874.205.205,0,0,0,.12-.111,5.065,5.065,0,0,0,1.051.44c.467.074,1.416.083,1.743-.348.4-.531-.079-.919-.591-.99a5.3,5.3,0,0,0-2.38.586.234.234,0,0,0-.218.086l-.046.017c-.923-.914-1.877-1.793-2.825-2.654h.029a2.451,2.451,0,0,0,.778.307,2.077,2.077,0,0,0,1.871-.4,1.2,1.2,0,0,0,.071-1.77c-1.111-.967-2.546,1.446-3.074,1.572-.963-.864-1.975-1.666-3-2.449a1.756,1.756,0,0,0,.348.052c.968.042,3.168-1.258,1.925-2.358-1.084-.959-2.174,1.053-2.969,1.778-.967-.73-1.938-1.454-2.885-2.21a2.637,2.637,0,0,0,1.5-.088c.539-.194,1.4-.654,1.016-1.375s-1.434-.336-1.974-.068a14.989,14.989,0,0,1-1.4.83A18.192,18.192,0,0,1,2.273,7.269,15.921,15.921,0,0,1,.735,3.843,10.355,10.355,0,0,1,.054.789,11.967,11.967,0,0,0,1.425,6.975,15.174,15.174,0,0,0,4.54,11.246c-.251.913-2.7,2.34-1.15,3.1.821.4,1.6-.375,1.733-1.16a3.286,3.286,0,0,0-.346-1.705q.593.569,1.225,1.1c.581.487,1.174.959,1.773,1.424-.9.936-1.657,3.517-.371,3.865,1.9.512.82-2.9.655-3.538a.1.1,0,0,0-.085.037c.007-.06.016-.124.028-.189,1.145.885,2.306,1.751,3.432,2.659a4.942,4.942,0,0,0-.346.511,5.533,5.533,0,0,0-.67,1.094c-.27.623-.51,1.607.308,1.922.89.344,1.247-.773,1.218-1.427a8.679,8.679,0,0,0-.252-1.314c-.027-.137.017-.764-.157-.486a1.319,1.319,0,0,0-.006-.221q.3.246.6.5a.235.235,0,0,0-.013.076.226.226,0,0,0,.334.2q.4.338.782.688c.545.5,1.1,1,1.649,1.526-.108.1-.056.236-.156.344s-.306.176-.425.279a3.011,3.011,0,0,0-.71.977c-.28.587-.617,1.8.3,2.029.947.232,1.359-.945,1.382-1.668a18.394,18.394,0,0,0-.27-1.844c1.019.969,2.024,1.978,2.941,3.009a3.35,3.35,0,0,0-1.114.743c-.346.375-.885,1.191-.223,1.574.588.339,1.261-.232,1.477-.764a7.3,7.3,0,0,0,.127-1.249c.38.438.744.879,1.084,1.323q.34.443.641.911a.428.428,0,0,0-.119.13c-.94.211-2.072,1.754-.931,2.21.543.217,1.092-.319,1.33-.746a5.519,5.519,0,0,0,.165-.857A17.774,17.774,0,0,1,21.8,29.572a.207.207,0,0,0-.152.2,2.828,2.828,0,0,0-1.094,1.046c-.183.324-.505,1.059.091,1.2.775.186,1.194-1,1.226-1.583,0-.067-.007-.261-.019-.439a.257.257,0,0,0,.08-.006c.213.706.391,1.422.54,2.142-.41.156-.367,2.349-.073,2.646.657.665,1.042-.366.98-.9a3.522,3.522,0,0,0-.752-1.672c-.039-.052-.029-.05-.034.026a.152.152,0,0,0-.04-.082,9.538,9.538,0,0,0-.015-.964,22.344,22.344,0,0,0-.418-2.493q-.067-.3-.15-.592a4.857,4.857,0,0,0,1,.568A1.693,1.693,0,0,0,24.6,28.67ZM0,.789A2.362,2.362,0,0,1,.132,0,6.159,6.159,0,0,0,0,.789Z" transform="matrix(-0.999, -0.052, 0.052, -0.999, 25.359, 36.28)" fill="#f2f2f2" fill-rule="evenodd"/>
          <g id="Plant-Right" transform="translate(11.956 6.893)" opacity="0.7">
            <path id="Leaf-Me-Alone_" data-name="Leaf-Me-Alone!" d="M8.8,31.178c-1.8-.1-3.9-1.37-3.882-3.332.01-1.425.2-2.828.134-4.259a11.47,11.47,0,0,0-.688-3.34C4,19.21,3.1,18.267,2.952,17.186a4.545,4.545,0,0,1,.392-2.256c.358-.77.206-.722-.27-1.449A18.283,18.283,0,0,1,.8,8.968a14.012,14.012,0,0,1-.486-7.5C.4,1.156.57.035,1.011,0c.492-.037.2.583.151.789A13.682,13.682,0,0,0,.647,4.616C.864,9.9,4.237,13.722,6.2,18.394c.11.242.335.814.493,1.192a10.92,10.92,0,0,0,.824,2.168c.707.872.147-.791.025-1.11-.154-.4-.325-.833-.49-1.19C6.308,17.8,5.469,16,4.7,14.295c4.171-.5,6.526,4.7,7.281,8.034.622,2.748,1.048,9.063-3.173,8.849" transform="matrix(-0.995, 0.105, -0.105, -0.995, 15.56, 45.268)" fill="#69a1ac" fill-rule="evenodd"/>
            <path id="Leaf-Me-Alone_2" data-name="Leaf-Me-Alone!" d="M122.395,78.016c-3,.238-4.931,2.22-5.828,4.991a32.752,32.752,0,0,0-.808,4.563,9.747,9.747,0,0,1-2.974,5.7,5.738,5.738,0,0,0-1.19,1.592,6.783,6.783,0,0,0-1.375,1.964,3.628,3.628,0,0,0-.057,3.156,3.235,3.235,0,0,0,.844,1.037,20.328,20.328,0,0,0-2,9.13c.05,1.89.143,3.782.25,5.67.029.507.194,1.344.442.494a10.5,10.5,0,0,0-.084-2.811c-.128-3.958-.238-7.557,1.392-11.254.171-.388.352-.772.541-1.153a.38.38,0,0,0,.032-.022l.021.017c.012-.022.029-.047.048-.076a1.029,1.029,0,0,0,.146-.205,1.489,1.489,0,0,0,.309-.564s0,0,0,0a53.291,53.291,0,0,1,3.344-4.727c-.009.011,1.28-1.744,1.081-.773-.1.468-1.044,1.358-1.427,1.854a46.159,46.159,0,0,0-2.668,3.849,1.944,1.944,0,0,0-.382.611c-.063.118-.121.238-.179.342,2.928.967,5.206-.981,6.76-3.248l.005-.008A9.852,9.852,0,0,1,120.2,96.4a9.319,9.319,0,0,1,3.28-1.379c3.245-1.109,4.625-5.314,5.063-8.435.494-3.521-1.924-8.919-6.146-8.572" transform="translate(-94.773 -67.788)" fill="#89c5cc" fill-rule="evenodd"/>
            <path id="Leaf-Me-Alone_3" data-name="Leaf-Me-Alone!" d="M12.906.3c-3.5,2.747-5.592,6.946-7.342,10.924A53.876,53.876,0,0,0,1.379,25.048C.914,28.2.381,31.372.122,34.555a33.916,33.916,0,0,0-.116,3.4c0,.093.051,2.625.513,2.1.262-.3-.046-2.626-.041-3.006a48.691,48.691,0,0,1,.577-6.38c.511-3.482.9-6.964,1.737-10.387a11.874,11.874,0,0,1,.438-1.54c.207-.521.007-.309.463-.462s.95-.048,1.416-.248c1.848-.794,3.093-3.324,4.015-4.969a33.669,33.669,0,0,0,2.5-5.98,44.24,44.24,0,0,0,1.236-4.545A12.152,12.152,0,0,1,13.2,1.072a3.39,3.39,0,0,0,.219-.455c.024-.246-.1-.41-.086-.617q-.216.146-.426.3" transform="translate(8.868 1.868) rotate(-8)" fill="#89c5cc" fill-rule="evenodd"/>
            <path id="Base" d="M38,328a9.6,9.6,0,1,0,19.21,0" transform="translate(-33.115 -284.895)" fill="#89c5cc" fill-rule="evenodd"/>
            <path id="Leaf-Me-Alone_4" data-name="Leaf-Me-Alone!" d="M113.507,272.451H113a17.039,17.039,0,0,1,.188-1.9c.407-2.408,1.68-5.945,4.472-6.336a7.212,7.212,0,0,1,.941.01,1.7,1.7,0,0,1,.718-.212c2.377-.175,5.032,1.742,6.178,3.738a6.854,6.854,0,0,1,.2,5.431c-.382,1.144-1.217,2.776-2.608,2.792-1.741.02-1.825-2.132-1.859-3.39-.045-1.672-.256-3.129-1.574-4.269-.307-.266-.643-.5-.953-.761a2.393,2.393,0,0,1-1.085-1.508c-.086-.935.442-1.1,1.248-.93.137.03,1.522.651,1.317.16a.913.913,0,0,0-.58-.358,10.854,10.854,0,0,0-1.893-.119c-2.762.606-3.838,4.433-4.124,6.864C113.554,271.924,113.529,272.188,113.507,272.451Z" transform="translate(-98.247 -229.316)" fill="#69a1ac" fill-rule="evenodd"/>
          </g>
        </g>
      </g>
    </g>
  </g>
</svg>
